<?xml version="1.0" encoding="utf-8"?>
<!-- Generator: Adobe Illustrator 18.1.1, SVG Export Plug-In . SVG Version: 6.00 Build 0)  -->
<!DOCTYPE svg PUBLIC "-//W3C//DTD SVG 1.1//EN" "http://www.w3.org/Graphics/SVG/1.1/DTD/svg11.dtd">
<svg version="1.1" id="Layer_1" xmlns="http://www.w3.org/2000/svg" xmlns:xlink="http://www.w3.org/1999/xlink" x="0px" y="0px"
	 width="50px" height="200px" viewBox="0 0 50 200" enable-background="new 0 0 50 200" xml:space="preserve">
<linearGradient id="SVGID_1_" gradientUnits="userSpaceOnUse" x1="25" y1="152" x2="25" y2="198">
	<stop  offset="0" style="stop-color:#F16A70"/>
	<stop  offset="1" style="stop-color:#ED575C"/>
</linearGradient>
<path fill-rule="evenodd" clip-rule="evenodd" fill="url(#SVGID_1_)" d="M25,152c12.7,0,23,10.3,23,23s-10.3,23-23,23S2,187.7,2,175
	S12.3,152,25,152z"/>
<linearGradient id="SVGID_2_" gradientUnits="userSpaceOnUse" x1="25" y1="102" x2="25" y2="148">
	<stop  offset="0" style="stop-color:#FACE24"/>
	<stop  offset="1" style="stop-color:#F8C41E"/>
</linearGradient>
<path fill-rule="evenodd" clip-rule="evenodd" fill="url(#SVGID_2_)" d="M25,102c12.7,0,23,10.3,23,23s-10.3,23-23,23S2,137.7,2,125
	S12.3,102,25,102z"/>
<linearGradient id="SVGID_3_" gradientUnits="userSpaceOnUse" x1="25" y1="52" x2="25" y2="98">
	<stop  offset="0" style="stop-color:#F4F4F4"/>
	<stop  offset="1" style="stop-color:#F2F2F2"/>
</linearGradient>
<path fill-rule="evenodd" clip-rule="evenodd" fill="url(#SVGID_3_)" d="M25,52c12.7,0,23,10.3,23,23S37.7,98,25,98S2,87.7,2,75
	S12.3,52,25,52z"/>
<linearGradient id="SVGID_4_" gradientUnits="userSpaceOnUse" x1="25" y1="2" x2="25" y2="48">
	<stop  offset="0" style="stop-color:#26B452"/>
	<stop  offset="1" style="stop-color:#20A444"/>
</linearGradient>
<path fill-rule="evenodd" clip-rule="evenodd" fill="url(#SVGID_4_)" d="M25,2c12.7,0,23,10.3,23,23S37.7,48,25,48S2,37.7,2,25
	S12.3,2,25,2z"/>
</svg>
